General
Complete name                    : Titanic[BrRip]Eng-Hindi[Dual.Audio]-ahl07.mkv
Format                           : Matroska
File size                        : 4.96 GiB
Duration                         : 3h 6mn
Overall bit rate                 : 3 804 Kbps
Writing application              : AVI-Mux GUI 1.17.8.3, Feb 16 201019:42:50
Writing library                  : matroska muxer by Alexander Noe, build date Feb 16 2010

Bio
Title				 : Titanic[BrRip]Eng-Hindi[Dual.Audio]-ahl07.mkv
Year				 : 1997
Genre				 : American Romantic Epic Film
Directer			 : James Cameron
Producer			 : James Cameron | Jon Landau
Languages			 : English.Hindi

Video
ID                               : 1
Format                           : AVC
Format/Info                      : Advanced Video Codec
Format profile                   : High@L5.1
Format settings, CABAC           : Yes
Format settings, ReFrames        : 3 frames
Muxing mode                      : Container profile=Unknown@5.1
Codec ID                         : V_MPEG4/ISO/AVC
Duration                         : 3h 6mn
Bit rate                         : 2 905 Kbps
Width                            : 1 280 pixels
Height                           : 544 pixels
Display aspect ratio             : 2.35:1
Frame rate                       : 25.000 fps
Color space                      : YUV
Chroma subsampling               : 4:2:0
Bit depth                        : 8 bits
Scan type                        : Progressive
Bits/(Pixel*Frame)               : 0.167
Stream size                      : 3.70 GiB (74%)
Writing library                  : x264 core 59 r819M 0414d78
Language                         : English

Audio #1
ID                               : 2
Format                           : AC-3
Format/Info                      : Audio Coding 3
Mode extension                   : CM (complete main)
Codec ID                         : A_AC3
Duration                         : 3h 6mn
Bit rate mode                    : Constant
Bit rate                         : 448 Kbps
Channel(s)                       : 6 channels
Channel positions                : Front: L C R, Side: L R, LFE
Sampling rate                    : 48.0 KHz
Stream size                      : 599 MiB (12%)
Language                         : English

Audio #2
ID                               : 3
Format                           : AC-3
Format/Info                      : Audio Coding 3
Mode extension                   : CM (complete main)
Codec ID                         : A_AC3
Duration                         : 3h 6mn
Bit rate mode                    : Constant
Bit rate                         : 448 Kbps
Channel(s)                       : 2 channels
Channel positions                : Front: L R
Sampling rate                    : 48.0 KHz
Video delay                      : 29s 768ms
Stream size                      : 599 MiB (12%)
Language                         : Hindi


Initial Seeding Time will be 2:00 AM to 8:00 AM IST
Enjoy and below are the Screenshots


Screens...

 
http://img295.imageshack.us/img295/1161/84651353.png 
http://img175.imageshack.us/img175/193/16584075.png 
http://img229.imageshack.us/img229/7307/22478571.png 
http://img44.imageshack.us/img44/6375/30893628.png 
http://img263.imageshack.us/img263/3740/76188657.png 
http://img269.imageshack.us/img269/116/74661482.png 
http://img40.imageshack.us/img40/5647/71470074.png 
http://img121.imageshack.us/img121/5248/61274398.png 
http://img13.imageshack.us/img13/2254/84951369.png
